<svg xmlns="http://www.w3.org/2000/svg" width="133.101" height="102.234"
    viewBox="0 0 133.101 102.234">
    <path id="email"
        d="M1613.513-1498.542h85.012a23.906,23.906,0,0,1,16.967,7.077,23.907,23.907,0,0,1,7.077,16.967v54.145a23.907,23.907,0,0,1-7.077,16.967,23.555,23.555,0,0,1-16.967,7.077h-85.012a23.708,23.708,0,0,1-16.968-7.077,23.907,23.907,0,0,1-7.077-16.967V-1474.5a23.907,23.907,0,0,1,7.077-16.967,24.064,24.064,0,0,1,16.968-7.077Zm-12.363,15.6,54.912,30.356,54.826-30.356a14.176,14.176,0,0,0-1.705-2.13,15.164,15.164,0,0,0-10.657-4.434h-85.012a14.96,14.96,0,0,0-10.571,4.434,10.735,10.735,0,0,0-1.792,2.13Zm112.381,8.782-55.252,30.611a4.557,4.557,0,0,1-4.434.086l-55.336-30.7v53.8a15.01,15.01,0,0,0,4.434,10.658,14.961,14.961,0,0,0,10.571,4.434h85.012a15.165,15.165,0,0,0,10.657-4.434,14.936,14.936,0,0,0,4.348-10.658Z"
        transform="translate(-1589.468 1498.542)" fill="#1d1d1d" />
</svg>
