<svg xmlns="http://www.w3.org/2000/svg" width="105.069" height="56" viewBox="0 0 105.069 56">
  <g id="Group_3129" data-name="Group 3129" transform="translate(1251.069 1166)">
    <g id="Group_3128" data-name="Group 3128">
      <path id="Icon_awesome-parking" data-name="Icon awesome-parking" d="M49.321,2.25H5.919A5.92,5.92,0,0,0,0,8.169v43.4A5.92,5.92,0,0,0,5.919,57.49h43.4a5.92,5.92,0,0,0,5.919-5.919V8.169A5.92,5.92,0,0,0,49.321,2.25ZM29.593,37.761H23.674V43.68A1.979,1.979,0,0,1,21.7,45.652H17.756a1.979,1.979,0,0,1-1.973-1.973V16.06a1.979,1.979,0,0,1,1.973-1.973H29.593a11.837,11.837,0,1,1,0,23.674Zm0-15.783H23.674V29.87h5.919a3.946,3.946,0,0,0,0-7.891Z" transform="translate(-1251.069 -1167.901)" fill="#3465f6"/>
      <text id="ark_JO" data-name="ark
JO" transform="translate(-1173 -1143)" fill="rgba(52,101,246,0.15)" font-size="22" font-family="ArialRoundedMTBold, Arial Rounded MT Bold"><tspan x="-17.386" y="0">ark</tspan><tspan x="-15.018" y="26">JO</tspan></text>
      <g id="Rectangle_67" data-name="Rectangle 67" transform="translate(-1251 -1166)" fill="none" stroke="#3465f6" stroke-width="2">
        <rect width="105" height="56" rx="4" stroke="none"/>
        <rect x="1" y="1" width="103" height="54" rx="3" fill="none"/>
      </g>
      <path id="Path_675" data-name="Path 675" d="M-1171.16-1165.024v52h-4.436v-52Z" transform="translate(-24.67 1.024)" fill="#3465f6" stroke="#3465f6" stroke-width="2"/>
    </g>
    <g id="Rectangle_68" data-name="Rectangle 68" transform="translate(-1247 -1162)" fill="none" stroke="#fff" stroke-width="1">
      <rect width="48" height="48" rx="4" stroke="none"/>
      <rect x="0.5" y="0.5" width="47" height="47" rx="3.5" fill="none"/>
    </g>
  </g>
</svg>
